<?xml version="1.0" encoding="UTF-8"?>
<svg version="1.1" viewBox="0 0 1600 1600" width="1280" height="1280" xmlns="http://www.w3.org/2000/svg">
<path transform="translate(826,216)" d="m0 0c1.53 0.398 1.53 0.398 3.09 0.804 21.3 5.59 41.9 12.6 62.3 20.9 1.63 0.659 1.63 0.659 3.29 1.33 7.29 3 14.3 6.39 21.3 9.98 1.32 0.653 2.64 1.3 3.97 1.95 15.4 7.6 30.5 15.8 45 25.1 0.87 0.536 1.74 1.07 2.64 1.62 18.5 11.5 36.2 24.7 52.7 38.9 1.77 1.53 3.54 3.05 5.32 4.57 2.89 2.47 5.78 4.95 8.67 7.43 1.15 0.983 2.3 1.96 3.46 2.94 3.57 3.02 6.93 6.14 10.2 9.49 1.03 1.02 2.06 2.04 3.09 3.05 5.36 5.31 10.7 10.6 15.5 16.4 1.49 1.77 1.49 1.77 3.8 3.96 1.56 1.62 1.56 1.62 1.56 3.62h2c1.67 1.81 1.67 1.81 3.75 4.44 0.804 1.01 1.61 2.02 2.44 3.05 0.447 0.562 0.895 1.12 1.36 1.7 1.55 1.92 3.12 3.8 4.71 5.69 20.7 24.6 38.2 51.6 53.5 79.9 0.815 1.5 1.63 3 2.46 4.5 21.4 38.9 36.3 81.5 45.8 125 0.221 0.999 0.443 2 0.671 3.03 2.69 12.3 4.83 24.6 6.52 37 0.155 1.13 0.31 2.27 0.469 3.43 2.75 21.3 3.75 42.5 3.72 64-2.11e-4 1.28-4.23e-4 2.56-6.41e-4 3.89-0.0367 22.4-1.22 44.4-4.37 66.6-0.182 1.3-0.364 2.6-0.551 3.93-9.93 68.3-34.6 137-73.1 194-2.6 3.51-2.6 3.51-3.19 7.66 1.09 2.65 3.02 3.97 5.23 5.71 2.03 1.6 3.84 3.31 5.57 5.23v2c0.99 0.33 1.98 0.66 3 1 2.19 1.94 2.19 1.94 4 4v2c0.99 0.33 1.98 0.66 3 1 1.69 1.98 3.35 3.98 5 6l3 2v2c0.99 0.33 1.98 0.66 3 1 2.19 1.94 2.19 1.94 4 4v2c0.99 0.33 1.98 0.66 3 1 2.19 1.94 2.19 1.94 4 4v2c0.99 0.33 1.98 0.66 3 1 1.22 1.45 2.43 2.9 3.61 4.38 2.2 2.55 4.77 4.5 7.39 6.62 2.38 2.19 2.38 2.19 4 4v2c0.99 0.33 1.98 0.66 3 1 1.33 1.67 2.67 3.33 4 5 1.73 1.58 3.52 3.08 5.32 4.58 2.02 1.7 3.92 3.44 5.68 5.42v2c0.99 0.33 1.98 0.66 3 1 2.19 1.94 2.19 1.94 4 4v2c0.99 0.33 1.98 0.66 3 1 2.19 1.94 2.19 1.94 4 4v2c0.99 0.33 1.98 0.66 3 1 1.69 1.98 3.35 3.98 5 6 0.99 0.66 1.98 1.32 3 2v2c0.99 0.33 1.98 0.66 3 1 2.19 1.94 2.19 1.94 4 4v2c0.99 0.33 1.98 0.66 3 1 2.19 1.94 2.19 1.94 4 4v2c0.99 0.33 1.98 0.66 3 1 1.69 1.98 3.35 3.98 5 6 0.99 0.66 1.98 1.32 3 2v2c0.99 0.33 1.98 0.66 3 1 2.19 1.94 2.19 1.94 4 4v2c0.99 0.33 1.98 0.66 3 1 2.19 1.94 2.19 1.94 4 4v2c0.99 0.33 1.98 0.66 3 1 1.69 1.98 3.35 3.98 5 6 0.99 0.66 1.98 1.32 3 2v2c0.99 0.33 1.98 0.66 3 1 2.19 1.94 2.19 1.94 4 4v2c0.99 0.33 1.98 0.66 3 1 2.19 1.94 2.19 1.94 4 4v2c0.99 0.33 1.98 0.66 3 1 1.69 1.98 3.35 3.98 5 6 0.99 0.66 1.98 1.32 3 2v2c0.99 0.33 1.98 0.66 3 1 2.19 1.94 2.19 1.94 4 4v2c0.99 0.33 1.98 0.66 3 1 2.19 1.94 2.19 1.94 4 4v2c0.99 0.33 1.98 0.66 3 1 1.69 1.98 3.35 3.98 5 6 0.99 0.66 1.98 1.32 3 2v2c0.99 0.33 1.98 0.66 3 1 2.19 1.94 2.19 1.94 4 4v2c0.99 0.33 1.98 0.66 3 1 1.33 1.67 2.67 3.33 4 5 1.73 1.58 3.52 3.08 5.32 4.58 2.02 1.7 3.92 3.44 5.68 5.42v2c0.99 0.33 1.98 0.66 3 1 2.19 1.94 2.19 1.94 4 4v2c0.99 0.33 1.98 0.66 3 1v2c1.32 0.66 2.64 1.32 4 2v2c1.32 0.66 2.64 1.32 4 2v2c0.99 0.33 1.98 0.66 3 1 2.55 2.47 4.74 5.27 7 8 0.656 0.77 1.31 1.54 1.99 2.33 8.98 10.8 14.7 22.4 19 35.7 0.343 1.05 0.686 2.1 1.04 3.18 5.87 22 2.91 47.5-7.04 67.8-0.441 0.909-0.882 1.82-1.34 2.75-12.6 24.4-33.4 41.1-59.3 49.5-9.81 3-19.4 4.12-29.6 4.06-1.1-0.00491-2.19-0.00983-3.32-0.0149-13.4-0.193-25.1-2.91-37.4-8.3-0.838-0.357-1.68-0.714-2.54-1.08-12.7-5.84-23.2-15.1-32.9-24.9-1.07-1.07-2.14-2.15-3.22-3.22-2.91-2.91-5.81-5.84-8.7-8.76-3.14-3.17-6.29-6.32-9.44-9.48-5.44-5.46-10.9-10.9-16.3-16.4-7.85-7.91-15.7-15.8-23.6-23.7-12.8-12.8-25.5-25.6-38.3-38.5-1.14-1.15-1.14-1.15-2.31-2.32-8.52-8.56-17-17.1-25.6-25.7-3.1-3.11-6.19-6.23-9.29-9.34-0.764-0.769-1.53-1.54-2.32-2.33-12.7-12.8-25.5-25.6-38.2-38.4-7.86-7.88-15.7-15.8-23.5-23.7-5.36-5.4-10.7-10.8-16.1-16.2-3.11-3.11-6.21-6.22-9.29-9.35-2.82-2.86-5.66-5.7-8.51-8.54-1.03-1.03-2.06-2.07-3.08-3.11-1.38-1.41-2.78-2.8-4.18-4.18-0.774-0.779-1.55-1.56-2.35-2.36-2.17-1.79-2.17-1.79-4.88-1.35-2.95 1.03-5.34 2.44-7.97 4.12-1.1 0.687-2.2 1.37-3.33 2.08-0.582 0.367-1.16 0.734-1.76 1.11-59 37.1-126 60.4-195 69.8-1.08 0.147-2.16 0.295-3.27 0.447-21.2 2.67-42.4 3.62-63.7 3.55-1.17-0.00149-2.34-0.00298-3.54-0.00452-19.5-0.0444-38.6-0.89-58-3.31-1.7-0.201-1.7-0.201-3.44-0.406-51.9-6.24-105-21.5-152-45.6-1.87-0.963-3.75-1.9-5.64-2.82-18.8-9.22-36.9-19.4-54.2-31.1-0.854-0.581-1.71-1.16-2.59-1.76-14.9-10.2-29-21.1-42.7-32.8-1.74-1.49-3.49-2.96-5.24-4.43-6.39-5.39-12.5-10.9-18.3-16.9-1.71-1.71-3.4-3.24-5.29-4.73-2.96-2.5-5.32-5.19-7.83-8.14-2.23-2.52-4.59-4.87-6.98-7.24-4.22-4.18-8.16-8.47-12-13-0.798-0.92-1.6-1.84-2.42-2.79-20.3-23.5-38-49.4-53.6-76.2-0.561-0.958-0.561-0.958-1.13-1.94-44.8-76.8-67-168-55.9-341 0.172-0.951 0.345-1.9 0.522-2.88 3.27-17.7 8.16-34.9 13.5-52.1 0.366-1.19 0.733-2.37 1.11-3.59 4.99-15.9 10.9-31.3 17.7-46.6 1.06-2.43 2.1-4.86 3.12-7.31 16.2-38.6 40.2-75.5 67.1-107 1.44-1.79 2.88-3.58 4.31-5.38 4.39-5.37 9.06-10.4 13.8-15.5 2.43-2.6 4.79-5.25 7.14-7.92 4.13-4.6 8.45-9 12.8-13.4 0.661-0.666 1.32-1.33 2-2.02 3.92-3.91 7.95-7.63 12.1-11.2 2.18-1.89 4.3-3.84 6.41-5.8 5.69-5.14 11.7-9.8 17.8-14.5 2.15-1.68 4.25-3.41 6.36-5.13 43.2-34.6 93.2-59.8 145-78.1 0.818-0.288 1.64-0.577 2.48-0.874 25.7-8.91 52.7-15 79.5-19.1 0.977-0.152 1.95-0.303 2.96-0.459 66.7-10.2 136-6.71 201 10.5zm-180 137c-1.02 0.166-2.04 0.333-3.09 0.504-52.7 8.66-103 29.2-146 60.5-0.548 0.397-1.1 0.793-1.66 1.2-10.1 7.33-19.7 15.2-28.9 23.6-1.63 1.49-3.27 2.96-4.92 4.42-9.09 8.06-17.7 16.5-25.5 25.8-0.82 0.942-1.64 1.88-2.48 2.86-19.3 22.3-36 47.6-48.6 74.2-0.925 1.93-1.88 3.84-2.84 5.75-20.3 40.9-32.1 88.9-32.3 135-0.00697 1.05-0.0139 2.09-0.0211 3.17-0.0173 3.35-0.0237 6.7-0.0258 10-0.00101 1.14-0.00201 2.29-0.00305 3.46 0.00986 16.5 0.454 32.6 3.25 48.9 0.293 1.86 0.586 3.72 0.879 5.58 6.12 37.3 18.4 73 36.1 106 0.556 1.06 0.556 1.06 1.12 2.13 13.5 25.4 30.6 48.9 50.2 70 2.33 2.53 4.6 5.11 6.86 7.7 9.95 11 21.1 20.8 33 29.8 2.22 1.72 4.38 3.49 6.56 5.26 50.7 40.6 115 63.8 179 70.2 0.961 0.0964 1.92 0.193 2.91 0.292 9.82 0.873 19.6 0.908 29.5 0.895 0.886-6.04e-4 1.77-0.00121 2.68-0.00183 13.7-0.0254 27.3-0.363 40.9-2.19 0.978-0.129 1.96-0.258 2.96-0.391 22.5-3.07 44.5-8.25 66-15.6 0.835-0.28 1.67-0.561 2.53-0.85 26.2-8.86 51.4-20.8 74.5-36.2 1.44-0.936 1.44-0.936 2.91-1.89 18.5-12.1 36.8-26.1 52.1-42.1 2.61-2.62 5.23-5.23 7.87-7.83 5.6-5.54 11.1-11.1 16.1-17.2 0.417-0.503 0.834-1.01 1.26-1.52 11.3-13.7 21.7-28.1 30.7-43.5 0.443-0.747 0.886-1.49 1.34-2.26 32.2-54.3 48.9-115 48.8-178-9.37e-4 -0.934-0.00187-1.87-0.00284-2.83-0.0297-13.7-0.218-27.1-2.18-40.7-0.161-1.13-0.323-2.25-0.489-3.42-9.52-64.8-34.9-132-80.5-180-2.15-2.34-4.09-4.78-6.04-7.29-4.21-5.21-8.83-9.95-13.6-14.7-0.708-0.709-1.42-1.42-2.15-2.15-4.61-4.56-9.37-8.88-14.3-13.1-0.987-0.869-1.97-1.74-2.99-2.63-8.92-7.71-18.3-14.6-28-21.4-0.637-0.447-1.27-0.895-1.93-1.36-15.8-11-32.7-20.5-50.1-28.6-0.821-0.384-1.64-0.767-2.49-1.16-34.2-15.8-71-25.9-109-29.8-1.21-0.13-1.21-0.13-2.44-0.263-11.9-1.11-23.8-0.981-35.7-0.987-1.17-6.75e-4 -2.33-0.00135-3.53-0.00204-16.6 0.0153-32.9 0.361-49.3 3.25z" fill="#000002"/>
</svg>
